<svg id="visual" viewBox="0 0 960 540" width="960" height="540" xmlns="http://www.w3.org/2000/svg" xmlns:xlink="http://www.w3.org/1999/xlink" version="1.1"><path d="M757 540L755.5 517.5C754 495 751 450 739.8 405C728.7 360 709.3 315 714.2 270C719 225 748 180 760.8 135C773.7 90 770.3 45 768.7 22.5L767 0L960 0L960 22.5C960 45 960 90 960 135C960 180 960 225 960 270C960 315 960 360 960 405C960 450 960 495 960 517.5L960 540Z" fill="#47b5ff"></path><path d="M585 540L593 517.5C601 495 617 450 604.2 405C591.3 360 549.7 315 560.8 270C572 225 636 180 650.3 135C664.7 90 629.3 45 611.7 22.5L594 0L768 0L769.7 22.5C771.3 45 774.7 90 761.8 135C749 180 720 225 715.2 270C710.3 315 729.7 360 740.8 405C752 450 755 495 756.5 517.5L758 540Z" fill="#358fca"></path><path d="M229 540L264.3 517.5C299.7 495 370.3 450 378.3 405C386.3 360 331.7 315 349.2 270C366.7 225 456.3 180 446.8 135C437.3 90 328.7 45 274.3 22.5L220 0L595 0L612.7 22.5C630.3 45 665.7 90 651.3 135C637 180 573 225 561.8 270C550.7 315 592.3 360 605.2 405C618 450 602 495 594 517.5L586 540Z" fill="#246a98"></path><path d="M47 540L74.2 517.5C101.3 495 155.7 450 160.5 405C165.3 360 120.7 315 111.2 270C101.7 225 127.3 180 136.8 135C146.3 90 139.7 45 136.3 22.5L133 0L221 0L275.3 22.5C329.7 45 438.3 90 447.8 135C457.3 180 367.7 225 350.2 270C332.7 315 387.3 360 379.3 405C371.3 450 300.7 495 265.3 517.5L230 540Z" fill="#144869"></path><path d="M0 540L0 517.5C0 495 0 450 0 405C0 360 0 315 0 270C0 225 0 180 0 135C0 90 0 45 0 22.5L0 0L134 0L137.3 22.5C140.7 45 147.3 90 137.8 135C128.3 180 102.7 225 112.2 270C121.7 315 166.3 360 161.5 405C156.7 450 102.3 495 75.2 517.5L48 540Z" fill="#06283d"></path></svg>